<svg xmlns="http://www.w3.org/2000/svg" xmlns:xlink="http://www.w3.org/1999/xlink" width="38.278" height="36.558" viewBox="0 0 38.278 36.558"><defs><style>.a{fill:url(#a);}.b{fill:url(#b);}.c{fill:url(#c);}.d{fill:url(#d);}.e{fill:url(#e);}.f{fill:url(#f);}.g{fill:url(#g);}</style><linearGradient id="a" x1="0.463" y1="0.914" x2="0.463" y2="-0.169" gradientUnits="objectBoundingBox"><stop offset="0" stop-color="#ffcf95"/><stop offset="0.427" stop-color="#ffc954"/><stop offset="1" stop-color="#ffc200"/></linearGradient><linearGradient id="b" x1="1.217" y1="1.457" x2="-0.633" y2="1.457" gradientUnits="objectBoundingBox"><stop offset="0" stop-color="#ffc200" stop-opacity="0"/><stop offset="0.203" stop-color="#fb0" stop-opacity="0.204"/><stop offset="0.499" stop-color="#ffa700" stop-opacity="0.498"/><stop offset="0.852" stop-color="#f80" stop-opacity="0.851"/><stop offset="1" stop-color="#ff7800"/></linearGradient><linearGradient id="c" x1="0.518" y1="-0.407" x2="0.353" y2="1.223" xlink:href="#b"/><linearGradient id="d" x1="-0.462" y1="-1.03" x2="0.591" y2="-0.306" xlink:href="#b"/><linearGradient id="e" x1="-0.151" y1="-0.116" x2="0.585" y2="-0.571" xlink:href="#b"/><linearGradient id="f" x1="0.61" y1="2.287" x2="0.415" y2="1.017" xlink:href="#b"/><linearGradient id="g" x1="1.34" y1="1.58" x2="-0.083" y2="0.368" xlink:href="#b"/></defs><path class="a" d="M20.547,12.376,25.61,22.635,36.931,24.28a1.571,1.571,0,0,1,.871,2.679L29.61,34.944l1.934,11.275a1.571,1.571,0,0,1-2.279,1.656L19.139,42.552,9.013,47.875a1.571,1.571,0,0,1-2.279-1.656L8.668,34.944.476,26.959a1.571,1.571,0,0,1,.871-2.679l11.321-1.645L17.73,12.376A1.571,1.571,0,0,1,20.547,12.376Z" transform="translate(0 -11.501)"/><path class="b" d="M262.472,22.635l-5.063-10.259A1.552,1.552,0,0,0,256,11.5V30.923Z" transform="translate(-236.862 -11.501)"/><path class="c" d="M266.471,206.594l8.192-7.985a1.551,1.551,0,0,0,.4-1.588L256,202.572Z" transform="translate(-236.861 -183.15)"/><path class="d" d="M267.785,288.118,256,271.289v11.629l10.126,5.323A1.552,1.552,0,0,0,267.785,288.118Z" transform="translate(-236.861 -251.867)"/><path class="e" d="M102.186,271.289,91.715,275.31l-1.934,11.275a1.552,1.552,0,0,0,.62,1.533Z" transform="translate(-83.047 -251.867)"/><path class="f" d="M.968,163.165l19.066,5.552-6.471-8.288L2.242,162.074a1.552,1.552,0,0,0-1.274,1.091Z" transform="translate(-0.896 -149.295)"/><path class="g" d="M8.673,206.595.481,198.609a1.551,1.551,0,0,1-.4-1.588l19.066,5.552Z" transform="translate(-0.005 -183.151)"/></svg>